Coordinates
version=1
nRows=24
nColumns=38
inDegrees=no

Units are S.I. units (second, meters, Newtons, ...)
If the header above contains a line with 'inDegrees', this indicates whether rotational values are in degrees (yes) or radians (no).

endheader
time	pelvis_tilt	pelvis_list	pelvis_rotation	pelvis_tx	pelvis_ty	pelvis_tz	hip_flexion_r	hip_adduction_r	hip_rotation_r	knee_angle_r	ankle_angle_r	subtalar_angle_r	mtp_angle_r	hip_flexion_l	hip_adduction_l	hip_rotation_l	knee_angle_l	ankle_angle_l	subtalar_angle_l	mtp_angle_l	lumbar_extension	lumbar_bending	lumbar_rotation	arm_flex_r	arm_add_r	arm_rot_r	elbow_flex_r	pro_sup_r	wrist_flex_r	wrist_dev_r	arm_flex_l	arm_add_l	arm_rot_l	elbow_flex_l	pro_sup_l	wrist_flex_l	wrist_dev_l
0.43	0.0911539	-0.0268771	-0.0261685	0.829369	1.00438	-0.328002	0.310547	0.0756425	-0.0526904	-0.267904	0.0803406	-0.0275998	0.000498375	-0.377627	0.0172126	-0.0117974	-0.774485	-0.420642	0.00864625	-0.0660926	-0.317266	0.00300756	-0.112803	-0.650571	-0.119204	-0.328915	1.64746	1.3484	-0.00754823	-0.0582694	-0.0183173	-0.389726	0.169981	1.88911	1.73125	0.0670611	-0.0451712
0.44	0.113406	-0.0370966	-0.0307827	0.827994	1.00043	-0.327512	0.304952	0.0890568	-0.0564513	-0.353437	0.0762433	-0.0275998	0.000498375	-0.363678	0.00188478	-0.0275552	-0.888053	-0.401141	0.00864625	-0.0660926	-0.348613	0.0130845	-0.0940142	-0.637671	-0.130761	-0.332305	1.66359	1.33729	-0.00754823	-0.0582694	-0.0210894	-0.393196	0.179135	1.87831	1.73612	0.0670611	-0.0451712
0.45	0.132266	-0.0488243	-0.0350029	0.826471	0.995687	-0.327024	0.298967	0.104307	-0.0584409	-0.434241	0.0834728	-0.0275998	0.000498375	-0.343562	-0.0163895	-0.0424399	-0.995738	-0.380394	0.00864625	-0.0660926	-0.376094	0.0243431	-0.0745778	-0.620649	-0.144533	-0.333267	1.67465	1.32786	-0.00754823	-0.0582694	-0.0251617	-0.393902	0.185259	1.85992	1.74365	0.0670611	-0.0451712
0.46	0.147764	-0.0619613	-0.0387768	0.824844	0.990512	-0.326538	0.292512	0.121263	-0.0587458	-0.510104	0.101712	-0.0275998	0.000498375	-0.317266	-0.0374735	-0.0563259	-1.09745	-0.358464	0.00864625	-0.0660926	-0.399688	0.0367216	-0.0545724	-0.599526	-0.160478	-0.331808	1.68065	1.32013	-0.00754823	-0.0582694	-0.0305327	-0.391843	0.188361	1.83396	1.75373	0.0670611	-0.0451712
0.47	0.159968	-0.0762136	-0.0419703	0.823134	0.985282	-0.32606	0.285298	0.139491	-0.057589	-0.580411	0.129967	-0.0275998	0.000498375	-0.284814	-0.0608982	-0.0688527	-1.1929	-0.335532	0.00864625	-0.0660926	-0.41939	0.0499856	-0.0342448	-0.574404	-0.178457	-0.32797	1.68167	1.31416	-0.00754823	-0.0582694	-0.0372099	-0.38704	0.188467	1.8006	1.76604	0.0670611	-0.0451712
0.48	0.169	-0.090967	-0.0443606	0.821326	0.980268	-0.325619	0.276743	0.158161	-0.0553236	-0.644101	0.166389	-0.0275998	0.000498375	-0.246363	-0.0857121	-0.0794093	-1.28155	-0.31189	0.00864625	-0.0660926	-0.435275	0.0636666	-0.0140283	-0.545565	-0.198193	-0.321872	1.678	1.30996	-0.00754823	-0.0582694	-0.0452376	-0.379598	0.185624	1.76031	1.78001	0.0670611	-0.0451712
0.49	0.175092	-0.105294	-0.0456925	0.819405	0.975601	-0.325291	0.265999	0.176074	-0.0523471	-0.699791	0.208428	-0.0275998	0.000498375	-0.202291	-0.110443	-0.0872317	-1.36259	-0.287893	0.00864625	-0.0660926	-0.447532	0.0770398	0.00550271	-0.513568	-0.219251	-0.31377	1.67032	1.30745	-0.00754823	-0.0582694	-0.0547351	-0.369772	0.179903	1.71411	1.79487	0.0670611	-0.0451712
0.5	0.178629	-0.118054	-0.0457669	0.817398	0.971392	-0.325165	0.252063	0.19182	-0.0489943	-0.746022	0.253184	-0.0275998	0.000498375	-0.153263	-0.133217	-0.0915933	-1.435	-0.263869	0.00864625	-0.0660926	-0.456467	0.0891851	0.0237476	-0.479304	-0.241045	-0.304102	1.65969	1.30643	-0.00754823	-0.0582694	-0.0659415	-0.358024	0.171393	1.66371	1.80969	0.0670611	-0.0451712
0.51	0.180095	-0.128129	-0.0445186	0.815374	0.967794	-0.325283	0.233962	0.204027	-0.0454674	-0.781509	0.297809	-0.0275998	0.000498375	-0.100239	-0.15202	-0.0920191	-1.49764	-0.240071	0.00864625	-0.0660926	-0.462457	0.0990949	0.0402042	-0.443975	-0.26288	-0.293501	1.64763	1.30651	-0.00754823	-0.0582694	-0.0792492	-0.345037	0.160193	1.61158	1.8235	0.0670611	-0.0451712
0.52	0.179963	-0.134615	-0.0420681	0.813418	0.964971	-0.325635	0.210955	0.211603	-0.0417999	-0.805346	0.339778	-0.0275998	0.000498375	-0.0443888	-0.165048	-0.0884887	-1.54935	-0.216656	0.00864625	-0.0660926	-0.465862	0.105822	0.0545667	-0.408991	-0.28401	-0.282756	1.63589	1.30721	-0.00754823	-0.0582694	-0.0952083	-0.331671	0.146408	1.56075	1.83536	0.0670611	-0.0451712
0.53	0.178554	-0.136925	-0.0387204	0.811617	0.963041	-0.326196	0.182709	0.213919	-0.0378942	-0.817117	0.377046	-0.0275998	0.000498375	0.0130349	-0.171048	-0.08152	-1.58911	-0.193709	0.00864625	-0.0660926	-0.466924	0.108645	0.0667606	-0.375808	-0.303714	-0.272733	1.62621	1.30801	-0.00754823	-0.0582694	-0.114467	-0.318875	0.130175	1.5145	1.84444	0.0670611	-0.0451712
0.54	0.175997	-0.134849	-0.0349085	0.810057	0.962065	-0.326943	0.149377	0.210867	-0.033592	-0.816916	0.408079	-0.0275998	0.000498375	0.0708182	-0.169514	-0.0721138	-1.61614	-0.171297	0.00864625	-0.0660926	-0.465705	0.10716	0.0769164	-0.345759	-0.321363	-0.264279	1.62009	1.30844	-0.00754823	-0.0582694	-0.137648	-0.307563	0.111716	1.47591	1.85011	0.0670611	-0.0451712
0.55	0.17225	-0.12854	-0.0310979	0.80882	0.962055	-0.327828	0.111544	0.202784	-0.0287586	-0.805304	0.431787	-0.0275998	0.000498375	0.127834	-0.160686	-0.0615889	-1.62986	-0.1495	0.00864625	-0.0660926	-0.462115	0.101296	0.0853086	-0.319913	-0.336471	-0.258118	1.61855	1.30816	-0.00754823	-0.0582694	-0.165192	-0.298472	0.0913741	1.44736	1.85198	0.0670611	-0.0451712
0.56	0.167191	-0.11845	-0.027693	0.807978	0.962983	-0.328794	0.0700723	0.190312	-0.0233889	-0.783235	0.447343	-0.0275998	0.000498375	0.183024	-0.145416	-0.0513639	-1.62995	-0.128428	0.00864625	-0.0660926	-0.456019	0.0912793	0.0922836	-0.298983	-0.348745	-0.254761	1.62205	1.30702	-0.00754823	-0.0582694	-0.197231	-0.292046	0.0696212	1.43025	1.84991	0.0670611	-0.0451712
0.57	0.160704	-0.105196	-0.0249649	0.807581	0.964789	-0.329807	0.0259164	0.174234	-0.0177247	-0.751958	0.453941	-0.0275998	0.000498375	0.235342	-0.124952	-0.0427412	-1.6162	-0.108223	0.00864625	-0.0660926	-0.447377	0.0775897	0.0981925	-0.283294	-0.358099	-0.254441	1.63051	1.30512	-0.00754823	-0.0582694	-0.233517	-0.288354	0.0470075	1.42476	1.84404	0.0670611	-0.0451712
0.58	0.152836	-0.0894396	-0.0230241	0.807663	0.967399	-0.330867	-0.020017	0.155321	-0.0123361	-0.712927	0.450613	-0.0275998	0.000498375	0.28372	-0.100717	-0.0367333	-1.58846	-0.0890482	0.00864625	-0.0660926	-0.436323	0.0608919	0.103312	-0.272792	-0.364655	-0.257068	1.64336	1.30271	-0.00754823	-0.0582694	-0.273452	-0.28708	0.024072	1.43	1.83475	0.0670611	-0.0451712
0.59	0.143814	-0.0718779	-0.0218062	0.808238	0.970741	-0.331985	-0.0669266	0.134263	-0.0080818	-0.667755	0.436228	-0.0275998	0.000498375	0.327067	-0.0741342	-0.0339672	-1.5466	-0.0710819	0.00864625	-0.0660926	-0.42321	0.0419442	0.107803	-0.267091	-0.368712	-0.262239	1.65968	1.30024	-0.00754823	-0.0582694	-0.31617	-0.287581	0.00125799	1.44421	1.82258	0.0670611	-0.0451712
0.6	0.134005	-0.053216	-0.0211172	0.809293	0.974734	-0.333168	-0.114083	0.1117	-0.00593235	-0.618216	0.409719	-0.0275998	0.000498375	0.364337	-0.046545	-0.0346497	-1.49045	-0.0544993	0.00864625	-0.0660926	-0.408566	0.0215493	0.111709	-0.265547	-0.370693	-0.269286	1.67841	1.29821	-0.00754823	-0.0582694	-0.360663	-0.289002	-0.0211467	1.46514	1.80813	0.0670611	-0.0451712
0.61	0.123817	-0.0341574	-0.0207154	0.810789	0.97928	-0.33442	-0.160753	0.0883179	-0.00671087	-0.566258	0.370448	-0.0275998	0.000498375	0.394626	-0.0191844	-0.0385766	-1.41994	-0.0394366	0.00864625	-0.0660926	-0.393007	0.00053738	0.115005	-0.267352	-0.371092	-0.277364	1.6984	1.29713	-0.00754823	-0.0582694	-0.405888	-0.290425	-0.0430255	1.49038	1.79213	0.0670611	-0.0451712
0.62	0.113632	-0.0154425	-0.0203906	0.812664	0.98425	-0.335734	-0.206128	0.0649179	-0.0108663	-0.514002	0.318534	-0.0275998	0.000498375	0.417288	0.00681271	-0.0451639	-1.33522	-0.0259394	0.00864625	-0.0660926	-0.377138	-0.0202458	0.11766	-0.271628	-0.370412	-0.285566	1.7186	1.29739	-0.00754823	-0.0582694	-0.450843	-0.291012	-0.0643982	1.51769	1.77528	0.0670611	-0.0451712
0.63	0.103752	0.00212133	-0.0200278	0.814835	0.989483	-0.337079	-0.249304	0.0424329	-0.0183564	-0.463703	0.255064	-0.0275998	0.000498375	0.43203	0.0304063	-0.0534955	-1.23688	-0.0139029	0.00864625	-0.0660926	-0.361477	-0.0399487	0.119697	-0.277513	-0.369121	-0.293046	1.73815	1.29925	-0.00754823	-0.0582694	-0.494592	-0.290133	-0.0853486	1.54518	1.75834	0.0670611	-0.0451712
0.64	0.0943895	0.0176627	-0.0196353	0.817201	0.99479	-0.338397	-0.289306	0.021875	-0.0286678	-0.417688	0.182125	-0.0275998	0.000498375	0.438998	0.0506537	-0.0623938	-1.12626	-0.00302809	0.00864625	-0.0660926	-0.34644	-0.0577304	0.121222	-0.284217	-0.367611	-0.299117	1.75636	1.30278	-0.00754823	-0.0582694	-0.536271	-0.28743	-0.105952	1.57144	1.7421	0.0670611	-0.0451712
0.65	0.0856991	0.030306	-0.0193373	0.819649	0.999964	-0.339616	-0.325159	0.00423206	-0.0409311	-0.378268	0.102701	-0.0275998	0.000498375	0.438805	0.0667329	-0.0705428	-1.00568	0.00716719	0.00864625	-0.0660926	-0.332361	-0.0728063	0.122391	-0.291037	-0.366169	-0.303292	1.77277	1.30787	-0.00754823	-0.0582694	-0.575111	-0.282834	-0.126237	1.59556	1.72747	0.0670611	-0.0451712
0.66	0.0778411	0.0393021	-0.0193316	0.82206	1.0048	-0.34066	-0.356014	-0.00967566	-0.0540836	-0.347656	0.0204418	-0.0275998	0.000498375	0.432497	0.077999	-0.0766902	-0.878667	0.0172579	0.00864625	-0.0660926	-0.319586	-0.0845484	0.123284	-0.297301	-0.364989	-0.305199	1.7871	1.31425	-0.00754823	-0.0582694	-0.610512	-0.27651	-0.146229	1.61712	1.71535	0.0670611	-0.0451712
